# xmcd CD database file
#
# Track frame offsets:
#	150
#	17477
#	34935
#	52142
#	69250
#	86507
#	103755
#	120787
#	137885
#	155025
#	172275
#	189412
#	206595
#	223360
#	240027
#	256967
#	273950
#	290712
#	307652
#	324590
#
# Disc length: 4554 seconds
#
# Revision: 0
# Processed by: cddbd v1.5.1PL2 Copyright (c) Steve Scherf et al.
# Submitted via: CDex 1.51
#
DISCID=2111c814
DTITLE=Royal Records - Platinum 2006 CD 1/2
DYEAR=2006
DGENRE=Country
TTITLE0=American Pie RYL 150 voc
TTITLE1=American Pie RYL 150 
TTITLE2=Billy Does Your Bulldog Bite RYL 127 voc
TTITLE3=Billy Does Your Bulldog Bite RYL 127 
TTITLE4=Do Run Run RYL 305 voc
TTITLE5=Do Run Run RYL 305
TTITLE6=On The Wings Of A Dove RYL 153 voc
TTITLE7=On The Wings Of A Dove RYL 153 
TTITLE8=What's A Guy Gotta Do RYL 149 voc
TTITLE9=What's A Guy Gotta Do RYL 149
TTITLE10=Doctor Doctor RYL 1010 voc
TTITLE11=Doctor Doctor RYL 1010
TTITLE12=Burning Love RYL 1205 voc
TTITLE13=Burning Love RYL 1205
TTITLE14=Crazy Litte Thing Called Love RYL 250 voc
TTITLE15=Crazy Litte Thing Called Love RYL 250
TTITLE16=Walzing Mathilda RYL 155 voc
TTITLE17=Walzing Mathilda RYL 155
TTITLE18=Neon Moon RYL 336 voc
TTITLE19=Neon Moon RYL 336
EXTD=YEAR: 2006
EXTT0=
EXTT1=
EXTT2=
EXTT3=
EXTT4=
EXTT5=
EXTT6=
EXTT7=
EXTT8=
EXTT9=
EXTT10=
EXTT11=
EXTT12=
EXTT13=
EXTT14=
EXTT15=
EXTT16=
EXTT17=
EXTT18=
EXTT19=
PLAYORDER=
